<svg width="22" height="22" viewBox="0 0 22 22" fill="none" xmlns="http://www.w3.org/2000/svg">
<path d="M17 3.5C17 3.10218 16.8419 2.72076 16.5605 2.43945C16.2792 2.15815 15.8978 2 15.5 2C14.3061 2 13.4424 2.83836 12.8135 3.98193C12.6224 4.32937 12.4682 4.68067 12.3462 5H15.5C15.8978 5 16.2792 4.84185 16.5605 4.56055C16.8419 4.27924 17 3.89782 17 3.5ZM12 20H18V12H12V20ZM4 20H10V12H4V20ZM12 10H20V7H12V10ZM2 10H10V7H2V10ZM5.00732 3.64844C5.04145 3.99176 5.19335 4.31445 5.43945 4.56055C5.72076 4.84185 6.10218 5 6.5 5H9.65381C9.53175 4.68067 9.3776 4.32937 9.18652 3.98193C8.55756 2.83836 7.6939 2 6.5 2C6.10218 2 5.72076 2.15815 5.43945 2.43945C5.15815 2.72076 5 3.10218 5 3.5L5.00732 3.64844ZM19 3.5C19 4.02386 18.8824 4.53555 18.6621 5H21C21.5523 5 22 5.44772 22 6V11C22 11.5523 21.5523 12 21 12H20V21C20 21.5523 19.5523 22 19 22H3C2.44772 22 2 21.5523 2 21V12H1C0.447715 12 0 11.5523 0 11V6C0 5.44772 0.447715 5 1 5H3.33789C3.14195 4.58693 3.02734 4.13649 3.00439 3.67334L3 3.5C3 2.57174 3.36853 1.68128 4.0249 1.0249C4.68128 0.368525 5.57174 0 6.5 0C8.80604 0 10.1924 1.66166 10.9385 3.01807C10.9596 3.0565 10.9796 3.09544 11 3.13379C11.0204 3.09544 11.0404 3.0565 11.0615 3.01807C11.8076 1.66166 13.194 0 15.5 0C16.4283 0 17.3187 0.368525 17.9751 1.0249C18.6315 1.68128 19 2.57174 19 3.5Z" fill="#EB71C7"/>
</svg>
