<svg width="42" height="42" viewBox="0 0 42 42" fill="none" xmlns="http://www.w3.org/2000/svg">
<path d="M21.0972 17.2308C18.6894 17.1958 16.6834 19.2006 16.6769 21.6486C16.6704 24.0902 18.6518 26.0496 21.105 26.025C23.5438 26.0017 25.511 23.9748 25.4501 21.5501C25.3905 19.1954 23.4441 17.2645 21.0972 17.2308Z" fill="#FFFCFC"/>
<path d="M26.6566 10.8923C24.8307 10.8353 23.0009 10.882 21.1724 10.882C21.1724 10.8846 21.1724 10.8859 21.1724 10.8885C19.222 10.8885 17.2691 10.8133 15.324 10.9053C12.2048 11.0543 10.3503 12.9036 10.2803 16.0255C10.1961 19.8019 10.1832 23.5834 10.2881 27.3598C10.3736 30.4286 12.2125 32.3492 15.1788 32.4347C19.0756 32.5474 22.9801 32.5448 26.8769 32.4295C29.768 32.344 31.6847 30.5634 31.7857 27.7771C31.9309 23.761 31.9348 19.7306 31.7896 15.7145C31.6821 12.7157 29.7123 10.9882 26.6566 10.8923ZM21.0726 28.4315C17.3313 28.4393 14.2471 25.3161 14.2795 21.5501C14.3119 17.8308 17.3054 14.8735 21.0389 14.8748C24.8773 14.8761 27.8423 17.8606 27.8177 21.6992C27.7944 25.39 24.7542 28.4251 21.0726 28.4315ZM27.8177 15.4152C26.965 15.4152 26.2743 14.7244 26.2743 13.8717C26.2743 13.019 26.965 12.3282 27.8177 12.3282C28.6704 12.3282 29.3611 13.019 29.3611 13.8717C29.3611 14.7244 28.6704 15.4152 27.8177 15.4152Z" fill="#FFFCFC"/>
<path d="M21 0C9.40173 0 0 9.40202 0 20.9993C0 32.5967 9.40173 42 21 42C32.5983 42 42 32.598 42 20.9993C42 9.40072 32.597 0 21 0ZM34.0315 28.1153C33.8682 31.8593 31.1624 34.4162 27.4289 34.6507C25.2467 34.7868 23.0475 34.6754 20.8562 34.6754C20.8562 34.6793 20.8562 34.6818 20.8562 34.6857C18.8475 34.6857 16.8337 34.7777 14.8315 34.6663C11.0086 34.4525 8.23153 31.8645 8.07473 28.0816C7.8946 23.7701 7.89978 19.439 8.07473 15.1262C8.21857 11.5883 10.651 8.92252 14.1512 8.72554C18.7555 8.46506 23.3948 8.47283 28.0004 8.72036C31.3996 8.90308 33.8553 11.5351 34.0121 14.981C34.2104 19.3522 34.2233 23.7441 34.0328 28.1153H34.0315Z" fill="#FFFCFC"/>
</svg>
