<svg width="21" height="21" viewBox="0 0 21 21" fill="none" xmlns="http://www.w3.org/2000/svg">
<path d="M18.3333 5.5C18.3333 3.47496 16.6917 1.83333 14.6667 1.83333H5.5C3.47496 1.83333 1.83333 3.47496 1.83333 5.5V14.6667C1.83333 16.6917 3.47496 18.3333 5.5 18.3333H14.6667C16.6917 18.3333 18.3333 16.6917 18.3333 14.6667V5.5ZM8.01188 5.97534C8.86759 5.53133 9.84184 5.36844 10.7955 5.50985C11.7681 5.65411 12.6684 6.10763 13.3637 6.80294C14.059 7.49825 14.5126 8.39855 14.6568 9.37122C14.7982 10.3248 14.6353 11.2991 14.1913 12.1548C13.7473 13.0104 13.0445 13.7042 12.1834 14.1376C11.3224 14.571 10.3467 14.7218 9.39494 14.5686C8.44314 14.4155 7.56384 13.9662 6.88216 13.2845C6.20048 12.6028 5.75118 11.7235 5.59802 10.7717C5.44489 9.82 5.59569 8.8443 6.02905 7.98324C6.46246 7.12216 7.15622 6.41935 8.01188 5.97534ZM10.5264 7.32349C9.95429 7.23864 9.36991 7.33638 8.85649 7.60278C8.3431 7.86917 7.92685 8.29063 7.66679 8.80725C7.40676 9.32387 7.31624 9.90933 7.40808 10.4803C7.49998 11.0514 7.76938 11.5793 8.17839 11.9883C8.5874 12.3973 9.11524 12.6667 9.68632 12.7586C10.2573 12.8504 10.8428 12.7599 11.3594 12.4999C11.876 12.2398 12.2975 11.8236 12.5639 11.3102C12.8303 10.7968 12.928 10.2124 12.8432 9.64022C12.7566 9.05662 12.4847 8.51635 12.0675 8.09916C11.6503 7.68198 11.1101 7.41005 10.5264 7.32349ZM15.134 4.125C15.6402 4.125 16.0506 4.53541 16.0506 5.04167C16.0506 5.54793 15.6402 5.95833 15.134 5.95833H15.125C14.6187 5.95833 14.2083 5.54793 14.2083 5.04167C14.2083 4.53541 14.6187 4.125 15.125 4.125H15.134ZM20.1667 14.6667C20.1667 17.7042 17.7042 20.1667 14.6667 20.1667H5.5C2.46243 20.1667 0 17.7042 0 14.6667V5.5C0 2.46243 2.46243 0 5.5 0H14.6667C17.7042 0 20.1667 2.46243 20.1667 5.5V14.6667Z" fill="#EB71C7"/>
</svg>
