<svg width="21" height="21" viewBox="0 0 21 21" fill="none" xmlns="http://www.w3.org/2000/svg">
<path d="M5.4982 5.96958e-05C6.16233 -0.00431607 6.8059 0.232002 7.3096 0.66518C7.78386 1.07311 8.10402 1.62966 8.21911 2.24204L8.23925 2.36513L8.24059 2.37364C8.34753 3.18442 8.54566 3.98051 8.83141 4.74676L8.86408 4.83942C9.02054 5.30556 9.04966 5.80576 8.94689 6.28782C8.83722 6.80202 8.58208 7.2742 8.21239 7.64805L7.5513 8.30869C8.62915 9.99971 10.0641 11.4345 11.7551 12.5125L12.4162 11.8518C12.79 11.4821 13.2622 11.2274 13.7764 11.1178C14.2906 11.0081 14.8254 11.0478 15.3175 11.2328C15.988 11.4829 16.681 11.6658 17.3871 11.7793L17.6906 11.8241L17.6986 11.825C18.3666 11.9192 18.9769 12.2556 19.4129 12.7703C19.844 13.2791 20.0747 13.9271 20.0637 14.5933L20.0642 17.3397L20.061 17.483C20.045 17.8169 19.9679 18.1454 19.8336 18.4525C19.6802 18.8033 19.4552 19.1183 19.173 19.3772C18.8908 19.636 18.5578 19.8332 18.195 19.9559C17.8323 20.0786 17.448 20.1242 17.0666 20.0897C17.0611 20.0892 17.0556 20.0885 17.0501 20.0879C14.0896 19.7663 11.246 18.7552 8.74682 17.1361C6.41841 15.6565 4.44395 13.6825 2.96439 11.3541C1.33967 8.84362 0.32831 5.98561 0.0125218 3.0119C0.0120181 3.00715 0.0116086 3.00233 0.011179 2.99758C-0.0231698 2.61737 0.0218154 2.23412 0.143666 1.87233C0.265516 1.51055 0.461459 1.17809 0.718821 0.896137C0.976214 0.614169 1.28984 0.388855 1.63907 0.234597C1.98822 0.0804045 2.36562 0.000432474 2.7473 5.96958e-05H5.4982ZM2.74909 1.83339C2.6219 1.83352 2.49619 1.86035 2.37983 1.91172C2.26343 1.96314 2.15858 2.03795 2.07278 2.13194C1.98699 2.22593 1.92183 2.33718 1.88121 2.45778C1.84106 2.57711 1.82565 2.70343 1.83646 2.82884C2.11442 5.43124 2.9818 7.93506 4.37116 10.1505L4.50768 10.3645L4.51216 10.3712C5.84731 12.4723 7.62865 14.2536 9.72973 15.5888C9.7321 15.5903 9.73453 15.5922 9.73689 15.5937C11.9945 17.0577 14.5638 17.9719 17.2385 18.264C17.3634 18.2744 17.489 18.2594 17.6078 18.2193C17.7287 18.1784 17.8396 18.1126 17.9336 18.0263C18.0277 17.9401 18.1027 17.8349 18.1538 17.718C18.2049 17.6011 18.2313 17.4749 18.2308 17.3473V14.5709C18.2364 14.3462 18.1595 14.127 18.0142 13.9555C17.8688 13.784 17.6653 13.6718 17.4426 13.6404C16.4969 13.515 15.5681 13.2833 14.6743 12.9498L14.6725 12.9489C14.5084 12.8872 14.33 12.8738 14.1586 12.9104C13.9872 12.9469 13.8298 13.032 13.7052 13.1552L12.5446 14.3158C12.2528 14.6075 11.8022 14.6684 11.4436 14.4644C9.0052 13.0779 6.98629 11.059 5.5998 8.62066C5.39587 8.26199 5.45668 7.81137 5.7484 7.51959L6.90901 6.35899C7.03224 6.23437 7.11728 6.07698 7.15384 5.90558C7.19038 5.73419 7.17701 5.55578 7.11535 5.39174L7.11445 5.38995C6.78086 4.49597 6.54917 3.56706 6.42382 2.62115C6.39265 2.40097 6.28269 2.19995 6.11408 2.05495C5.94543 1.90991 5.72958 1.8312 5.50715 1.83339H2.74909Z" fill="#EB71C7"/>
</svg>
