<svg width="40" height="40" viewBox="0 0 40 40" fill="none" xmlns="http://www.w3.org/2000/svg">
<path d="M20 0C8.95403 0 0 8.9543 0 20.0006C0 31.0469 8.95403 40 20 40C31.046 40 40 31.0457 40 20.0006C40 8.95554 31.0447 0 20 0ZM27.3076 8.4816V10.9871C26.3215 10.9871 25.386 10.955 24.4542 10.9945C22.7029 11.0673 22.0315 11.6918 21.9266 13.4136C21.8587 14.5219 21.9142 15.6364 21.9142 16.9101H27.1385C26.9151 18.7109 26.714 20.3376 26.4881 22.1593H21.9315V35.7111H16.4591V22.2543H11.9803V17.0274H16.3221C16.6874 13.4864 15.6606 9.6467 19.199 7.25724C20.9849 6.05141 23.6705 5.75025 27.3089 6.33898V8.48036L27.3076 8.4816Z" fill="#FFFCFC"/>
</svg>
