<svg width="23" height="21" viewBox="0 0 23 21" fill="none" xmlns="http://www.w3.org/2000/svg">
<path d="M20.9033 6.50195C20.9033 5.91086 20.7868 5.32537 20.5605 4.7793C20.3343 4.23327 20.0025 3.73719 19.5845 3.31934L19.584 3.31885C19.1661 2.9008 18.6701 2.56905 18.124 2.34277C17.5779 2.1165 16.9925 2.00001 16.4014 2C15.8102 2 15.2248 2.1165 14.6787 2.34277C14.1326 2.56904 13.6366 2.90079 13.2188 3.31885L12.1582 4.37891C11.7677 4.76935 11.1346 4.7694 10.7441 4.37891L9.68408 3.31885C8.83998 2.47479 7.69517 2.00053 6.50146 2.00049C5.30766 2.00049 4.16251 2.47471 3.31836 3.31885C2.4742 4.163 2 5.30814 2 6.50195C2.00003 7.69568 2.47429 8.84045 3.31836 9.68457L11.4512 17.8174L19.584 9.68457C20.002 9.26672 20.3343 8.77064 20.5605 8.22461C20.7868 7.67854 20.9033 7.09303 20.9033 6.50195ZM22.9033 6.50195C22.9033 7.35567 22.735 8.20104 22.4082 8.98975C22.0814 9.7785 21.6019 10.495 20.998 11.0986L20.9985 11.0991L12.1582 19.939C11.7677 20.3294 11.1346 20.3295 10.7441 19.939L1.9043 11.0991C0.685098 9.87992 3.38318e-05 8.22616 0 6.50195C1.28467e-08 4.7777 0.685068 3.12401 1.9043 1.90479C3.12352 0.685571 4.77723 0.000488294 6.50146 0.000488281C8.22565 0.000534362 9.87945 0.685598 11.0986 1.90479L11.4512 2.25732L11.8042 1.90479L11.9185 1.79297C12.4974 1.24158 13.1736 0.801526 13.9131 0.495117C14.7019 0.168271 15.5475 0 16.4014 0C17.2552 9.89565e-06 18.1009 0.168281 18.8896 0.495117C19.6784 0.82195 20.395 1.30096 20.9985 1.90479C21.6024 2.5084 22.0814 3.22487 22.4082 4.01367C22.735 4.80247 22.9033 5.64812 22.9033 6.50195Z" fill="#FFFCFC"/>
</svg>
