<svg width="19" height="21" viewBox="0 0 19 21" fill="none" xmlns="http://www.w3.org/2000/svg">
<path d="M9.16667 0C9.64938 0 10.1236 0.127015 10.5417 0.368368L10.5412 0.368815L16.9548 4.03324L16.9583 4.03503L17.1114 4.13037C17.385 4.31324 17.6222 4.54446 17.8141 4.81116C17.8704 4.86702 17.9211 4.93037 17.9627 5.00228C17.9977 5.06267 18.0238 5.12589 18.0437 5.18982C18.233 5.56943 18.3329 5.98827 18.3333 6.41398V13.7491C18.3328 14.2313 18.2054 14.7048 17.9641 15.1223C17.7227 15.5398 17.3759 15.8865 16.9583 16.1276L16.9548 16.1298L10.5381 19.7965L10.5376 19.7961C10.2482 19.9625 9.93208 20.0731 9.60486 20.1259C9.47459 20.197 9.32553 20.2383 9.16667 20.2383C9.00766 20.2383 8.85837 20.1972 8.72803 20.1259C8.40083 20.073 8.0846 19.9626 7.79525 19.7961V19.7965L1.37858 16.1298L1.375 16.1276C0.957401 15.8865 0.610583 15.5398 0.369263 15.1223C0.127952 14.7048 0.000502342 14.2313 0 13.7491V6.41398L0.00626628 6.2336C0.0305026 5.87033 0.127092 5.5157 0.289591 5.18982C0.30951 5.1259 0.335669 5.06267 0.370605 5.00228C0.412215 4.93037 0.462948 4.86702 0.519206 4.81116C0.74615 4.49583 1.03675 4.23032 1.375 4.03503L1.37858 4.03324L7.79167 0.368815V0.368368C8.20971 0.127015 8.68395 0 9.16667 0ZM1.83333 13.7473L1.83557 13.8073C1.8449 13.9471 1.88603 14.0834 1.95642 14.2052C2.03685 14.3443 2.15253 14.4597 2.29167 14.54H2.29122L8.25 17.9448V10.6191L1.83333 6.90767V13.7473ZM10.0833 10.6191V17.9448L16.0417 14.54C16.1808 14.4597 16.2965 14.3443 16.3769 14.2052C16.4572 14.0663 16.4997 13.9086 16.5 13.7482V6.90767L10.0833 10.6191ZM9.16667 1.83333C9.00579 1.83333 8.84767 1.87555 8.70833 1.95597L8.70475 1.95821L2.78536 5.34021L9.16667 9.03194L15.5475 5.34021L9.62858 1.95821L9.625 1.95597C9.48567 1.87555 9.32755 1.83333 9.16667 1.83333Z" fill="#EB71C7"/>
</svg>
